<?xml version="1.0" encoding="UTF-8"?><svg id="Layer_2" xmlns="http://www.w3.org/2000/svg" viewBox="0 0 594.65 594.64"><defs><style>.cls-1{fill:#8fc440;}.cls-2{fill:#6d6e70;}.cls-3{fill:#343434;}.cls-4{opacity:.22;}</style></defs><g id="Layer_1-2"><g><path class="cls-3" d="M594.65,510.64c0,46.39-37.61,84-84,84H84c-46.39,0-84-37.61-84-84V84C0,37.61,37.61,0,84,0H510.64c46.4,0,84,37.61,84,84V510.64Z"/><g class="cls-4"><g><path class="cls-2" d="M337.15,483.07c-100.12,0-181.28-81.16-181.28-181.28,0-100.11,81.16-181.28,181.28-181.28,50.49,0,96.13,20.66,129.01,53.97-37.87-51.74-99.03-85.37-168.07-85.37-114.99,0-208.22,93.22-208.22,208.2s93.23,208.2,208.21,208.2c51.89,0,99.3-19.03,135.76-50.43-28,17.7-61.14,27.98-96.7,27.98"/><path class="cls-2" d="M399.47,149.67c43.58,25.52,72.89,72.81,72.89,126.96,0,81.22-65.85,147.05-147.05,147.05-75.56,0-137.77-56.99-146.07-130.32-.15,2.88-.24,5.77-.24,8.69,0,89.96,72.93,162.89,162.89,162.89,89.95,0,162.89-72.94,162.9-162.89,0-69.68-43.77-129.11-105.3-152.38"/><path class="cls-2" d="M320.93,160.93c-54.67,0-100.83,36.36-115.65,86.21,16.58-36.97,53.69-62.74,96.84-62.73,58.6,0,106.1,47.51,106.1,106.11s-47.5,106.1-106.1,106.1c-9.58,0-18.86-1.29-27.68-3.67,14.31,5.98,30.02,9.29,46.5,9.31,66.64-.01,120.64-54.03,120.66-120.67-.01-66.64-54.02-120.66-120.66-120.66"/></g></g><path class="cls-1" d="M480.4,291.01h-12.78c-3.27-88.97-75.01-160.72-163.98-163.98v-12.78c0-3.49-2.83-6.31-6.31-6.31s-6.31,2.83-6.31,6.31v12.78c-88.97,3.26-160.72,75.01-163.98,163.98h-12.78c-3.49,0-6.31,2.83-6.31,6.31s2.83,6.31,6.31,6.31h12.78c3.27,88.97,75.01,160.72,163.98,163.98v12.78c0,3.49,2.83,6.31,6.31,6.31s6.31-2.83,6.31-6.31v-12.78c88.97-3.26,160.72-75.01,163.98-163.98h12.78c3.49,0,6.31-2.83,6.31-6.31s-2.83-6.31-6.31-6.31h0Zm-63.13,12.63h12.31c-3.23,68.06-57.89,122.71-125.94,125.94v-12.31c0-3.49-2.83-6.31-6.31-6.31s-6.31,2.83-6.31,6.31v12.31c-68.06-3.23-122.71-57.89-125.94-125.94h12.31c3.49,0,6.31-2.83,6.31-6.31s-2.83-6.31-6.31-6.31h-12.31c3.23-68.06,57.89-122.71,125.94-125.94v12.31c0,3.49,2.83,6.31,6.31,6.31s6.31-2.83,6.31-6.31v-12.31c68.06,3.23,122.71,57.89,125.94,125.94h-12.31c-3.49,0-6.31,2.83-6.31,6.31s2.83,6.31,6.31,6.31h0Z"/><path class="cls-1" d="M362.79,270.22c-2.78,0-5.04,2.26-5.04,5.04v10.07c0,2.78-2.26,5.04-5.04,5.04h-10.07v-15.11c0-2.78-2.26-5.04-5.04-5.04h-10.07v-20.14c0-9.2-6.23-16.89-14.66-19.29,1.93-9.1,10.02-15.97,19.7-15.97,2.78,0,5.04-2.25,5.04-5.04s-2.26-5.04-5.04-5.04c-14.94,0-27.35,10.91-29.77,25.18h-10.98c-2.41-14.27-14.82-25.18-29.77-25.18-2.78,0-5.04,2.26-5.04,5.04s2.25,5.04,5.04,5.04c9.68,0,17.76,6.86,19.7,15.97-8.43,2.41-14.66,10.1-14.66,19.29v20.14h-10.07c-2.78,0-5.04,2.26-5.04,5.04v15.11h-15.02c-.11-.95-.1-2.52-.1-3.66v-11.45c0-2.78-2.26-5.04-5.04-5.04s-5.04,2.26-5.04,5.04v11.37c-.03,4-.07,8.15,2.89,11.13,1.76,1.78,4.18,2.67,7.18,2.67h15.11v10.07h-20.15c-2.78,0-5.04,2.26-5.04,5.04s2.26,5.04,5.04,5.04h20.15v10.08h-15.11c-3.01,0-5.42,.9-7.18,2.67-2.96,2.99-2.93,7.13-2.9,11.13v11.37c0,2.78,2.26,5.04,5.04,5.04s5.04-2.26,5.04-5.04v-11.45c0-1.13-.03-2.7,.09-3.66h15.03v5.04c0,13.89,11.3,25.18,25.18,25.18h40.29c13.89,0,25.18-11.3,25.18-25.18v-5.04h10.07c2.78,0,5.04,2.26,5.04,5.04v10.07c0,2.78,2.26,5.04,5.04,5.04s5.04-2.26,5.04-5.04v-10.07c0-8.33-6.78-15.11-15.11-15.11h-10.07v-10.07h20.15c2.78,0,5.04-2.25,5.04-5.04s-2.26-5.04-5.04-5.04h-20.15v-10.07h10.07c8.33,0,15.11-6.78,15.11-15.11v-10.08c0-2.77-2.25-5.03-5.03-5.03h0Zm-85.62-20.14c0-5.56,4.52-10.08,10.08-10.08h20.14c5.56,0,10.08,4.52,10.08,10.08v20.14h-40.29v-20.14Zm5.04,65.47c0,2.78-2.25,5.04-5.04,5.04s-5.04-2.26-5.04-5.04v-20.15c0-2.78,2.26-5.04,5.04-5.04s5.04,2.26,5.04,5.04v20.15Zm40.29,30.22c0,2.78-2.26,5.04-5.04,5.04s-5.04-2.26-5.04-5.04v-20.15c0-2.78,2.25-5.04,5.04-5.04s5.04,2.25,5.04,5.04v20.15Z"/></g></g></svg>